<?xml version="1.0" encoding="UTF-8"?><svg id="Layer_2" xmlns="http://www.w3.org/2000/svg" viewBox="0 0 370.6 298.93"><defs><style>.cls-1{fill:#fff;}</style></defs><g id="Layer_1-2"><path class="cls-1" d="m106.23,194.45c-.41-3.8-.8-9.39-1.2-16.79v-45.24c0-7.39-1.39-13.18-4.16-17.38-4.36-6.39-12.38-11.09-24.07-14.08h-.37l.37-.12c11.69-3,19.72-7.69,24.07-14.09,2.77-4.19,4.16-9.98,4.16-17.38v-25.05c.4-7.4.79-12.99,1.2-16.79,1.39-11.79,3.68-18.88,6.88-21.28h-45.78c-2.6,3-4.39,7.43-5.38,13.32-1,5.88-1.5,14.21-1.5,24.99v31.27c0,5.19-1.3,8.33-3.9,9.43-2.6,1.09-6.19,1.64-10.76,1.64V6.26H0v209.46h45.79v-100.85c4.57,0,8.16.56,10.76,1.65,2.6,1.1,3.9,4.24,3.9,9.43v51.46c0,10.78.49,19.1,1.5,24.99.99,5.89,2.79,10.32,5.38,13.32h45.78c-3.2-2.39-5.49-9.49-6.88-21.27Z"/><path class="cls-1" d="m235.12,182.45c0,12.66-5.04,22.41-15.1,29.27-10.07,6.84-23.2,10.27-39.38,10.27s-29.38-3.32-39.54-9.96c-10.18-6.64-15.26-16.39-15.26-29.27V42.34c0-13.9,3.94-24.18,11.83-30.82,8.92-7.67,23.35-11.52,43.28-11.52,18.26,0,31.86,3.63,40.79,10.9,8.92,7.27,13.38,17.64,13.38,31.13v140.41Zm-46.39,2.78V36.14c0-2.29-.64-3.96-1.94-5-1.29-1.04-3.35-1.56-6.15-1.56s-4.91.52-6.31,1.56c-1.4,1.04-2.1,2.71-2.1,5v149.08c0,2.09.7,3.7,2.1,4.85,1.4,1.14,3.5,1.72,6.31,1.72s4.86-.57,6.15-1.72c1.29-1.15,1.94-2.76,1.94-4.85Z"/><path class="cls-1" d="m370.6,215.73h-45.79c-2.59-3-4.38-7.43-5.38-13.32-1-5.88-1.5-14.21-1.5-24.99v-51.46c0-5.19-1.3-8.33-3.9-9.43-2.6-1.09-6.19-1.65-10.76-1.65v100.85h-45.78V6.26h56.85c15.16,0,26.98,3.38,35.46,10.13,8.48,6.75,12.72,15.68,12.72,26.8v25.01c0,6.95-1.09,12.32-3.27,16.08-3.97,6.96-12.29,12.51-24.97,16.68,11.69,2.99,19.72,7.69,24.07,14.08,2.77,4.2,4.16,9.99,4.16,17.38v45.24c.4,7.4.8,12.99,1.2,16.79,1.4,11.78,3.69,18.88,6.88,21.27Zm-52.67-137.58v-34.23c0-5.16-1.3-8.28-3.9-9.38-2.6-1.09-6.19-1.63-10.76-1.63v56.26c4.79,0,7.9-.3,9.36-.9,3.54-1.58,5.3-4.96,5.3-10.12Z"/><path class="cls-1" d="m295.21,215.73h-45.79c3.2-2.39,5.49-9.49,6.88-21.27.4-3.8.8-9.39,1.2-16.79V44.33c-.4-7.4-.77-12.99-1.2-16.79-1.32-11.8-3.68-18.88-6.88-21.28h21.6"/><path class="cls-1" d="m45.68,256.69c-4.21-4.35-10.04-7.02-16.14-7.02-11.79,0-21.33,10.25-21.33,21.89s9.61,21.89,21.47,21.89c5.96,0,11.79-2.81,16-7.02v7.3c-4.56,3.3-10.18,5.19-15.79,5.19-14.95,0-27.58-12.14-27.58-27.16s12.42-27.58,27.58-27.58c5.89,0,11.09,1.68,15.79,5.19v7.3Z"/><path class="cls-1" d="m68.56,298.02h-5.89v-52.91h7.65c10.04,0,19.37,2.67,19.37,14.6,0,8.14-5.12,13.89-13.26,14.6l16.84,23.72h-7.23l-16-23.23h-1.47v23.23Zm0-28.42h1.82c6.67,0,13.4-1.26,13.4-9.47,0-8.7-6.39-9.54-13.47-9.54h-1.75v19.02Z"/><path class="cls-1" d="m160.21,271.64c0,15.23-12.49,27.3-27.58,27.3s-27.58-12.07-27.58-27.3,12.49-27.44,27.58-27.44,27.58,12.28,27.58,27.44Zm-49.26-.07c0,11.93,9.68,21.89,21.68,21.89s21.68-9.96,21.68-21.89-9.54-21.89-21.68-21.89-21.68,9.89-21.68,21.89Z"/><path class="cls-1" d="m199.22,255.43c-2.11-3.65-4.63-5.75-9.12-5.75s-8.77,3.37-8.77,8.21c0,4.56,4.7,6.67,8.28,8.28l3.51,1.54c6.88,3.02,12.7,6.46,12.7,14.88,0,9.26-7.44,16.35-16.63,16.35-8.49,0-14.81-5.47-16.49-13.68l5.75-1.61c.77,5.4,4.91,9.82,10.6,9.82s10.88-4.35,10.88-10.32-4.84-8.28-9.75-10.53l-3.23-1.4c-6.18-2.81-11.51-5.96-11.51-13.54,0-8.21,6.95-13.47,14.81-13.47,5.89,0,10.88,3.02,13.68,8.21l-4.7,3.02Z"/><path class="cls-1" d="m245.46,255.43c-2.11-3.65-4.63-5.75-9.12-5.75s-8.77,3.37-8.77,8.21c0,4.56,4.7,6.67,8.28,8.28l3.51,1.54c6.88,3.02,12.7,6.46,12.7,14.88,0,9.26-7.44,16.35-16.63,16.35-8.49,0-14.81-5.47-16.49-13.68l5.75-1.61c.77,5.4,4.91,9.82,10.6,9.82s10.88-4.35,10.88-10.32-4.84-8.28-9.75-10.53l-3.23-1.4c-6.18-2.81-11.51-5.96-11.51-13.54,0-8.21,6.95-13.47,14.81-13.47,5.89,0,10.88,3.02,13.68,8.21l-4.7,3.02Z"/><path class="cls-1" d="m273.6,250.58v15.72h17.61v5.47h-17.61v26.25h-5.89v-52.91h24.07v5.47h-18.18Z"/><path class="cls-1" d="m314.3,298.02h-5.89v-52.91h5.89v52.91Z"/><path class="cls-1" d="m346.09,298.02h-5.89v-47.44h-12.77v-5.47h31.58v5.47h-12.91v47.44Z"/></g></svg>